<?xml version="1.0" encoding="utf-8"?>
<!-- Generator: Adobe Illustrator 27.5.0, SVG Export Plug-In . SVG Version: 6.00 Build 0)  -->
<svg version="1.1" xmlns="http://www.w3.org/2000/svg" xmlns:xlink="http://www.w3.org/1999/xlink" x="0px" y="0px"
	 viewBox="0 0 500 500" style="enable-background:new 0 0 500 500;" xml:space="preserve">
<g id="BACKGROUND">
	<rect style="fill:#FFFFFF;" width="500" height="500"/>
	<path style="fill:#C2EDE4;" d="M130.186,446.103h257.65c10.187-23.701,14.269-50.243,18.057-76.026
		c3.036-20.664,6.072-41.328,9.108-61.992c5.366-36.522,10.746-73.266,9.736-110.166c-1.01-36.901-8.758-74.336-27.962-105.861
		c-10.149-16.661-24.247-32.021-42.773-38.136c-31.215-10.303-65.334,8.752-86.162,34.184
		c-20.828,25.431-32.861,56.862-51.217,84.131c-21.948,32.604-53.07,58.959-88.844,75.236
		c-25.567,11.633-56.728,21.363-66.366,47.746c-3.075,8.418-3.416,17.605-2.719,26.54
		C62.495,370.516,95.047,411.456,130.186,446.103z"/>
	<g>
		<g>
			<g>
				<path style="fill:#8BC4F0;" d="M348.49,435.997c1.542-26.563,10.965-116.081,68.246-148.622c2.658-1.51,6.001,0.156,6.388,3.188
					c2.949,23.127,7.79,106.869-68.257,149.435C351.913,441.652,348.294,439.377,348.49,435.997z"/>
				<g>
					<path style="fill:#520025;" d="M352.857,428.19c-0.076,0-0.153-0.018-0.225-0.054c-0.247-0.124-0.346-0.425-0.222-0.671
						c0.609-1.21,61.042-121.135,65.975-135.274c0.09-0.261,0.377-0.399,0.637-0.307c0.261,0.091,0.398,0.376,0.307,0.637
						c-4.953,14.2-65.415,134.184-66.025,135.393C353.216,428.089,353.04,428.19,352.857,428.19z"/>
				</g>
			</g>
			<g>
				<g>
					<path style="fill:#FFD27A;" d="M353.76,446.053c0,0-2.49-4.08-3.56-11.3c-0.04-0.34-0.09-0.7-0.14-1.06
						c-1.53-12.48,1.38-33.49,26.63-58.74c12.64-12.64,21.36-23.19,27.63-31.6c0.1-0.14,0.21-0.28,0.3-0.42
						c13.88-18.71,15.53-26.63,21.41-23.16C434.58,324.833,433.41,465.483,353.76,446.053z"/>
				</g>
				<g>
					<g>
						<path style="fill:#520025;" d="M412.46,364.363c-0.09,0.19-0.18,0.38-0.27,0.58c-1.42,3.07-2.95,6.26-4.61,9.57
							c-0.23,0.47-0.47,0.94-0.71,1.42c-0.2,0.39-0.4,0.79-0.6,1.19c-0.18,0.36-0.37,0.72-0.55,1.08c-0.03,0.06-0.07,0.13-0.1,0.19
							c-3.94,7.68-8.58,14.91-13.87,21.6c-0.04,0.06-0.08,0.12-0.14,0.18c-0.62,0.8-1.27,1.59-1.93,2.38
							c-0.11,0.15-0.24,0.3-0.37,0.45c-1.12,1.34-2.27,2.66-3.45,3.96c-0.31,0.35-0.63,0.69-0.95,1.03c0,0,0,0-0.01,0
							c-6.31,6.82-13.35,12.97-21.02,18.34c-0.34,0.24-0.67,0.47-1.01,0.7c-3.65,2.52-7.44,4.85-11.37,7.01l-1.3,0.71
							c-0.04-0.34-0.09-0.7-0.14-1.06l0.96-0.53c14.49-7.96,27.2-18.43,37.62-30.91c0.29-0.35,0.58-0.7,0.86-1.05
							c0.47-0.55,0.92-1.12,1.36-1.68c0.44-0.56,0.88-1.12,1.31-1.69c4.77-6.23,9-12.93,12.63-20.01c0.01-0.02,0.02-0.05,0.03-0.07
							c2.44-4.77,4.65-9.32,6.63-13.64v-0.01c0.31-0.67,0.61-1.34,0.9-1.99c7.76-17.3,11.64-30.76,11.33-39.41
							c-0.01-0.27,0.21-0.5,0.48-0.51c0.28-0.02,0.51,0.2,0.52,0.48C425.02,331.913,420.91,345.903,412.46,364.363z"/>
					</g>
					<g>
						<path style="fill:#520025;" d="M411.941,365.023c-0.017,0-0.034-0.001-0.051-0.003c-0.274-0.027-0.476-0.272-0.447-0.547
							c0.603-6.031-6.994-20.696-7.071-20.844c-0.128-0.245-0.032-0.547,0.212-0.675c0.245-0.126,0.547-0.033,0.675,0.212
							c0.319,0.613,7.812,15.08,7.179,21.406C412.412,364.83,412.194,365.023,411.941,365.023z"/>
					</g>
					<g>
						<path style="fill:#520025;" d="M406.565,376.023c-0.186,0-0.365-0.104-0.451-0.283c-0.119-0.249-0.014-0.548,0.234-0.668
							c0.517-0.247,12.721-6.052,20.415-4.919c0.272,0.041,0.462,0.295,0.422,0.568c-0.041,0.273-0.286,0.455-0.568,0.422
							c-7.372-1.088-19.712,4.772-19.835,4.831C406.712,376.007,406.639,376.023,406.565,376.023z"/>
					</g>
					<g>
						<path style="fill:#520025;" d="M405.277,378.48c-0.206,0-0.399-0.128-0.472-0.334c-0.092-0.261,0.045-0.546,0.306-0.638
							c0.609-0.215,14.994-5.244,21.311-3.849c0.27,0.06,0.44,0.326,0.381,0.596c-0.06,0.27-0.32,0.441-0.596,0.381
							c-6.036-1.327-20.617,3.764-20.765,3.815C405.389,378.471,405.332,378.48,405.277,378.48z"/>
					</g>
					<g>
						<path style="fill:#520025;" d="M391.315,400.273c-0.044,0-0.089-0.006-0.134-0.018c-0.267-0.074-0.422-0.35-0.348-0.615
							c2.657-9.542-8.325-26.422-8.437-26.592c-0.151-0.23-0.087-0.541,0.144-0.692c0.23-0.151,0.54-0.089,0.692,0.144
							c0.465,0.707,11.343,17.43,8.563,27.408C391.735,400.128,391.534,400.273,391.315,400.273z"/>
					</g>
					<g>
						<path style="fill:#520025;" d="M414.815,412.898c-0.113,0-0.227-0.038-0.319-0.115c-7.876-6.543-29.171-4.78-29.388-4.762
							c-0.271,0.015-0.518-0.18-0.541-0.455c-0.024-0.274,0.18-0.518,0.455-0.541c0.891-0.079,21.923-1.815,30.112,4.988
							c0.213,0.177,0.242,0.492,0.065,0.704C415.102,412.836,414.959,412.898,414.815,412.898z"/>
					</g>
					<g>
						<path style="fill:#520025;" d="M389.189,403.023c-0.245,0-0.459-0.18-0.494-0.43c-0.028-0.201-2.925-20.191-8.887-27.248
							c-0.179-0.211-0.151-0.526,0.06-0.704c0.211-0.177,0.526-0.151,0.704,0.06c6.147,7.275,8.995,26.919,9.113,27.752
							c0.039,0.273-0.151,0.526-0.425,0.565C389.237,403.021,389.213,403.023,389.189,403.023z"/>
					</g>
					<g>
						<path style="fill:#520025;" d="M384.94,442.523c-0.174,0-0.344-0.092-0.436-0.254c-5.343-9.472-21.565-15.217-21.729-15.274
							c-0.261-0.091-0.398-0.376-0.307-0.637c0.09-0.26,0.379-0.4,0.636-0.307c0.682,0.237,16.742,5.925,22.271,15.726
							c0.136,0.241,0.051,0.546-0.189,0.682C385.108,442.502,385.024,442.523,384.94,442.523z"/>
					</g>
				</g>
			</g>
		</g>
		<g>
			<g>
				<g>
					<g>
						<path style="fill:#8BC4F0;" d="M112.064,349.735c0,0,3.553-3.197,6.645-9.809c0.136-0.314,0.287-0.645,0.438-0.976
							c5.037-11.52,8.261-32.485-8.708-63.904c-8.495-15.728-13.831-28.332-17.433-38.185c-0.056-0.163-0.121-0.328-0.167-0.488
							c-7.946-21.899-7.261-29.96-13.888-28.318C69.31,210.458,30.184,345.561,112.064,349.735z"/>
					</g>
				</g>
				<g>
					<g>
						<path style="fill:#520025;" d="M79.193,254.664c0.032,0.208,0.064,0.416,0.093,0.633c0.482,3.348,1.035,6.842,1.679,10.489
							c0.086,0.516,0.181,1.035,0.274,1.564c0.08,0.431,0.157,0.871,0.234,1.312c0.069,0.396,0.149,0.796,0.218,1.192
							c0.012,0.066,0.03,0.145,0.042,0.211c1.578,8.486,3.955,16.742,7.109,24.666c0.021,0.069,0.042,0.138,0.083,0.212
							c0.365,0.944,0.762,1.887,1.168,2.833c0.063,0.175,0.144,0.356,0.226,0.537c0.69,1.604,1.414,3.198,2.173,4.782
							c0.197,0.424,0.406,0.841,0.616,1.259c0,0,0,0,0.009,0.003c4.095,8.34,9.08,16.248,14.893,23.588
							c0.257,0.327,0.507,0.642,0.767,0.96c2.776,3.459,5.741,6.776,8.889,9.97l1.042,1.052c0.136-0.314,0.287-0.645,0.438-0.976
							l-0.768-0.783c-11.606-11.773-20.789-25.443-27.202-40.382c-0.178-0.418-0.355-0.837-0.524-1.252
							c-0.293-0.661-0.561-1.336-0.822-1.999c-0.261-0.662-0.523-1.325-0.772-1.994c-2.788-7.335-4.924-14.965-6.376-22.787
							c-0.004-0.022-0.005-0.054-0.009-0.076c-0.973-5.269-1.789-10.261-2.45-14.967l0.003-0.01
							c-0.105-0.731-0.201-1.458-0.293-2.164c-2.485-18.797-2.352-32.805,0.421-41.004c0.087-0.256-0.058-0.539-0.314-0.626
							c-0.263-0.099-0.546,0.046-0.636,0.311C76.444,219.977,76.379,234.558,79.193,254.664z"/>
					</g>
					<g>
						<path style="fill:#520025;" d="M79.502,255.445c0.016,0.005,0.033,0.009,0.049,0.012c0.271,0.052,0.534-0.125,0.585-0.396
							c1.148-5.952,12.624-17.83,12.74-17.949c0.193-0.198,0.187-0.515-0.01-0.707c-0.199-0.191-0.515-0.188-0.707,0.01
							c-0.482,0.496-11.8,12.214-13.004,18.457C79.106,255.126,79.259,255.373,79.502,255.445z"/>
					</g>
					<g>
						<path style="fill:#520025;" d="M81.506,267.523c0.178,0.053,0.38,0.004,0.513-0.142c0.185-0.204,0.17-0.521-0.033-0.707
							c-0.424-0.385-10.457-9.439-18.154-10.555c-0.273-0.039-0.527,0.15-0.567,0.424c-0.039,0.274,0.144,0.518,0.424,0.567
							c7.375,1.067,17.522,10.212,17.623,10.305C81.37,267.467,81.435,267.503,81.506,267.523z"/>
					</g>
					<g>
						<path style="fill:#520025;" d="M82.037,270.246c0.198,0.059,0.419-0.008,0.548-0.185c0.163-0.224,0.113-0.536-0.11-0.699
							c-0.522-0.38-12.867-9.315-19.319-9.786c-0.275-0.02-0.515,0.186-0.535,0.462c-0.02,0.275,0.181,0.515,0.462,0.535
							c6.163,0.456,18.678,9.506,18.805,9.598C81.933,270.206,81.984,270.231,82.037,270.246z"/>
					</g>
					<g>
						<path style="fill:#520025;" d="M89.179,295.123c0.042,0.013,0.087,0.02,0.133,0.021c0.277,0.005,0.504-0.214,0.509-0.49
							c0.184-9.903,15.537-22.935,15.693-23.066c0.211-0.178,0.238-0.494,0.061-0.705c-0.177-0.211-0.492-0.24-0.704-0.06
							c-0.648,0.544-15.856,13.455-16.048,23.812C88.818,294.865,88.969,295.061,89.179,295.123z"/>
					</g>
					<g>
						<path style="fill:#520025;" d="M63.049,300.496c0.109,0.032,0.228,0.028,0.339-0.019c9.419-4.016,29.319,3.767,29.521,3.847
							c0.256,0.092,0.547-0.024,0.649-0.281c0.102-0.256-0.024-0.547-0.281-0.649c-0.831-0.331-20.487-8.013-30.281-3.837
							c-0.255,0.108-0.373,0.402-0.264,0.656C62.792,300.355,62.911,300.455,63.049,300.496z"/>
					</g>
					<g>
						<path style="fill:#520025;" d="M90.429,298.367c0.235,0.07,0.491-0.041,0.596-0.27c0.085-0.185,8.58-18.51,16.312-23.566
							c0.232-0.151,0.296-0.461,0.144-0.692c-0.151-0.23-0.461-0.296-0.692-0.144c-7.972,5.212-16.322,23.219-16.673,23.984
							c-0.116,0.251-0.006,0.548,0.245,0.663C90.384,298.351,90.407,298.36,90.429,298.367z"/>
					</g>
					<g>
						<path style="fill:#520025;" d="M83.198,337.431c0.166,0.05,0.356,0.01,0.49-0.119c7.83-7.547,25.018-8.41,25.192-8.418
							c0.276-0.012,0.489-0.246,0.476-0.522c-0.012-0.275-0.248-0.492-0.521-0.476c-0.721,0.032-17.737,0.886-25.84,8.695
							c-0.199,0.192-0.205,0.509-0.013,0.707C83.043,337.363,83.117,337.407,83.198,337.431z"/>
					</g>
				</g>
			</g>
			<g>
				<path style="fill:#FFD27A;" d="M137.198,446.939c0.105-10.653,1.001-150.585-24.007-165.333
					c-9.75-5.75-16.781-5.594-21.762-3.152c-7.952,3.898-10.738,13.851-6.522,21.639c19.17,35.414,49.396,137.677,52.088,146.846
					H137.198z"/>
				<g>
					<g>
						<path style="fill:#520025;" d="M132.523,399.772c-0.268,0-0.49-0.212-0.499-0.482
							c-2.301-65.081-35.571-112.258-35.907-112.727c-0.161-0.225-0.109-0.537,0.115-0.697c0.224-0.161,0.538-0.109,0.697,0.115
							c0.338,0.471,33.781,47.879,36.093,113.273c0.01,0.276-0.206,0.508-0.482,0.518
							C132.536,399.772,132.53,399.772,132.523,399.772z"/>
					</g>
					<g>
						<path style="fill:#520025;" d="M105.023,300.939c-0.107,0-0.216-0.034-0.307-0.105c-6.539-5.102-16.932-1.786-17.037-1.752
							c-0.261,0.085-0.545-0.058-0.631-0.32c-0.086-0.262,0.057-0.544,0.319-0.63c0.446-0.147,11-3.521,17.963,1.913
							c0.218,0.17,0.256,0.484,0.086,0.702C105.319,300.873,105.172,300.939,105.023,300.939z"/>
					</g>
					<g>
						<path style="fill:#520025;" d="M106.356,303.939c-0.097,0-0.195-0.028-0.282-0.087c-6.048-4.141-16.779-0.479-16.886-0.441
							c-0.262,0.089-0.546-0.047-0.637-0.309c-0.091-0.261,0.047-0.545,0.308-0.636c0.459-0.16,11.313-3.865,17.78,0.559
							c0.228,0.156,0.286,0.468,0.13,0.695C106.673,303.863,106.516,303.939,106.356,303.939z"/>
					</g>
					<g>
						<path style="fill:#520025;" d="M115.524,322.772c-0.032,0-0.065-0.003-0.099-0.01c-0.271-0.054-0.446-0.317-0.392-0.588
							c1.197-5.987,7.794-9.841,8.074-10.002c0.238-0.138,0.544-0.055,0.682,0.185c0.138,0.239,0.056,0.545-0.184,0.683
							c-0.065,0.037-6.485,3.793-7.592,9.33C115.967,322.608,115.758,322.772,115.524,322.772z"/>
					</g>
				</g>
			</g>
			<g>
				<path style="fill:#8BC4F0;" d="M138.71,446.939c-4.446-34.04-19.719-126.141-56.52-144
					c-42.486-20.618-44.667,28.667-27.333,46.667c9.306,9.664,55.518,70.52,75.78,97.333H138.71z"/>
				<g>
					<g>
						<path style="fill:#520025;" d="M135.19,446.439c-0.227,0-0.432-0.155-0.486-0.386c-0.239-1.021-24.61-102.459-81.413-132.339
							c-0.244-0.129-0.338-0.431-0.209-0.675c0.129-0.245,0.431-0.338,0.675-0.21c29.915,15.735,50.598,51.073,62.681,77.946
							c13.077,29.082,19.179,54.793,19.239,55.049c0.063,0.269-0.104,0.538-0.372,0.601
							C135.266,446.435,135.228,446.439,135.19,446.439z"/>
					</g>
					<g>
						<path style="fill:#520025;" d="M88.356,307.439c-0.115,0-0.231-0.04-0.325-0.121c-0.094-0.08-9.557-8.066-24.035-8.88
							c-0.276-0.016-0.487-0.251-0.471-0.527c0.015-0.275,0.248-0.507,0.527-0.471c14.831,0.833,24.535,9.037,24.631,9.12
							c0.209,0.18,0.233,0.495,0.053,0.705C88.637,307.38,88.498,307.439,88.356,307.439z"/>
					</g>
					<g>
						<path style="fill:#520025;" d="M53.94,347.189c-0.139,0-0.277-0.058-0.375-0.17c-0.183-0.207-0.162-0.523,0.045-0.706
							c0.125-0.109,12.716-11.002,28.475-10.374c0.276,0.012,0.491,0.244,0.479,0.52c-0.011,0.276-0.247,0.486-0.52,0.48
							c-15.376-0.637-27.653,10.018-27.775,10.126C54.175,347.148,54.058,347.189,53.94,347.189z"/>
					</g>
					<g>
						<path style="fill:#520025;" d="M95.815,354.314c-0.238,0-0.449-0.171-0.492-0.414c-1.259-7.179,6.208-26.569,6.526-27.392
							c0.1-0.258,0.389-0.387,0.647-0.285c0.257,0.1,0.385,0.389,0.286,0.646c-0.077,0.198-7.686,19.951-6.474,26.858
							c0.047,0.272-0.134,0.53-0.406,0.578C95.873,354.312,95.844,354.314,95.815,354.314z"/>
					</g>
					<g>
						<path style="fill:#520025;" d="M97.94,357.689c-0.269,0-0.49-0.213-0.499-0.483c-0.375-11.496,6.87-25.887,7.179-26.493
							c0.125-0.247,0.424-0.347,0.672-0.219c0.246,0.125,0.344,0.426,0.219,0.672c-0.075,0.147-7.438,14.771-7.071,26.007
							c0.009,0.276-0.207,0.508-0.483,0.517C97.951,357.689,97.946,357.689,97.94,357.689z"/>
					</g>
				</g>
			</g>
			<g>
				<path style="fill:#FFD27A;" d="M133.634,446.939c-13.773-26.161-45.749-84.433-61.444-92.667
					c-20.333-10.667-33.667,11.667-22.667,24c8.024,8.997,52.582,48.142,76.106,68.667H133.634z"/>
				<g>
					<g>
						<path style="fill:#520025;" d="M127.857,445.772c-0.18,0-0.354-0.098-0.444-0.269c-11.827-22.669-72.629-83.268-73.242-83.877
							c-0.196-0.194-0.197-0.512-0.002-0.707c0.195-0.196,0.511-0.195,0.707-0.002c0.614,0.61,61.525,61.318,73.424,84.123
							c0.127,0.245,0.033,0.547-0.212,0.675C128.014,445.754,127.935,445.772,127.857,445.772z"/>
					</g>
					<g>
						<path style="fill:#520025;" d="M50.941,377.939c-0.168,0-0.331-0.084-0.425-0.236c-0.146-0.235-0.073-0.543,0.161-0.688
							c0.413-0.257,10.194-6.233,17.362-2.647c0.247,0.124,0.347,0.424,0.224,0.671c-0.124,0.246-0.423,0.348-0.671,0.224
							c-6.666-3.333-16.292,2.543-16.388,2.603C51.122,377.915,51.031,377.939,50.941,377.939z"/>
					</g>
					<g>
						<path style="fill:#520025;" d="M52.316,380.564c-0.184,0-0.361-0.102-0.449-0.278c-0.123-0.247-0.021-0.547,0.227-0.67
							c0.504-0.25,12.422-6.081,17.716-3.113c0.241,0.136,0.327,0.44,0.191,0.682c-0.135,0.24-0.442,0.324-0.681,0.191
							c-4.84-2.72-16.665,3.077-16.784,3.137C52.466,380.548,52.39,380.564,52.316,380.564z"/>
					</g>
					<g>
						<path style="fill:#520025;" d="M78.44,386.064c-0.198,0-0.386-0.119-0.464-0.314c-2.565-6.412,4.01-17.004,4.291-17.451
							c0.147-0.233,0.457-0.304,0.689-0.158c0.234,0.147,0.305,0.456,0.158,0.689c-0.066,0.105-6.585,10.607-4.209,16.549
							c0.103,0.256-0.022,0.547-0.279,0.649C78.565,386.053,78.503,386.064,78.44,386.064z"/>
					</g>
					<g>
						<path style="fill:#520025;" d="M81.19,405.814c-0.197,0-0.385-0.118-0.463-0.313c-0.104-0.256,0.02-0.547,0.275-0.65
							c0.386-0.157,9.505-3.81,13.901-1.739c0.25,0.117,0.357,0.415,0.24,0.665c-0.118,0.249-0.414,0.356-0.665,0.239
							c-4.006-1.884-13.009,1.725-13.099,1.761C81.317,405.803,81.253,405.814,81.19,405.814z"/>
					</g>
					<g>
						<path style="fill:#520025;" d="M102.19,412.189c-0.216,0-0.415-0.141-0.479-0.358c-1.045-3.528,3.109-11.534,3.287-11.873
							c0.128-0.245,0.43-0.338,0.675-0.212c0.245,0.128,0.339,0.431,0.211,0.675c-1.156,2.211-3.986,8.519-3.213,11.127
							c0.078,0.265-0.073,0.543-0.337,0.621C102.285,412.182,102.237,412.189,102.19,412.189z"/>
					</g>
					<g>
						<path style="fill:#520025;" d="M104.44,414.689c-0.231,0-0.439-0.161-0.489-0.397c-1.029-4.889,2.896-11.342,3.063-11.614
							c0.144-0.235,0.452-0.312,0.688-0.164c0.235,0.145,0.309,0.452,0.164,0.688c-0.039,0.063-3.883,6.388-2.937,10.886
							c0.057,0.27-0.116,0.535-0.386,0.592C104.509,414.685,104.474,414.689,104.44,414.689z"/>
					</g>
				</g>
			</g>
		</g>
	</g>
</g>
<g id="OBJECTS">
	<g>
		<g>
			<g>
				<g>
					<path style="fill:#520025;" d="M211.524,439.731c0,3.843-3.115,6.958-6.958,6.958s-6.958-3.115-6.958-6.958
						c0-3.843,3.115-6.958,6.958-6.958S211.524,435.888,211.524,439.731z"/>
				</g>
				<g>
					<path style="fill:#520025;" d="M226.358,439.731c0,3.843-3.115,6.958-6.958,6.958s-6.958-3.115-6.958-6.958
						c0-3.843,3.115-6.958,6.958-6.958S226.358,435.888,226.358,439.731z"/>
					<path style="fill:#C2EDE4;" d="M223.233,439.731c0,2.117-1.716,3.833-3.833,3.833c-2.117,0-3.833-1.716-3.833-3.833
						c0-2.117,1.716-3.833,3.833-3.833C221.517,435.898,223.233,437.614,223.233,439.731z"/>
				</g>
			</g>
			<g>
				<g>
					<path style="fill:#520025;" d="M162.774,439.731c0,3.843,3.115,6.958,6.958,6.958c3.843,0,6.958-3.115,6.958-6.958
						c0-3.843-3.115-6.958-6.958-6.958C165.89,432.773,162.774,435.888,162.774,439.731z"/>
				</g>
				<g>
					<path style="fill:#520025;" d="M147.941,439.731c0,3.843,3.115,6.958,6.958,6.958c3.843,0,6.958-3.115,6.958-6.958
						c0-3.843-3.115-6.958-6.958-6.958C151.057,432.773,147.941,435.888,147.941,439.731z"/>
					<path style="fill:#C2EDE4;" d="M151.066,439.731c0,2.117,1.716,3.833,3.833,3.833c2.117,0,3.833-1.716,3.833-3.833
						c0-2.117-1.716-3.833-3.833-3.833C152.782,435.898,151.066,437.614,151.066,439.731z"/>
				</g>
			</g>
		</g>
		<g>
			<g>
				<g>
					<g>
						<g>
							<rect x="164.108" y="223.106" style="fill:#FFFFFF;" width="6.083" height="81.667"/>
						</g>
						<g>
							<rect x="204.108" y="223.106" style="fill:#FFFFFF;" width="6.083" height="81.667"/>
						</g>
					</g>
				</g>
				<g>
					<path style="fill:#520025;" d="M211.483,226.689h-8v-8.667h-32.667v7.75h-8v-11c0-2.623,2.127-4.75,4.75-4.75h39.167
						c2.623,0,4.75,2.127,4.75,4.75V226.689z"/>
				</g>
			</g>
			<g>
				<rect x="164.112" y="292.616" style="fill:#520025;" width="6.063" height="5.625"/>
			</g>
			<g>
				<rect x="204.112" y="292.616" style="fill:#520025;" width="6.063" height="5.625"/>
			</g>
		</g>
		<g>
			<path style="fill:#FFD27A;" d="M226.26,432.609h-78.22c-6.397,0-11.583-5.186-11.583-11.583V309.833
				c0-6.397,5.186-11.583,11.583-11.583h78.22c6.397,0,11.583,5.186,11.583,11.583v111.193
				C237.843,427.423,232.657,432.609,226.26,432.609z"/>
			<rect x="152.649" y="423.583" style="fill:#520025;" width="68.667" height="9"/>
			<g style="opacity:0.5;">
				<path style="fill:#FFD27A;" d="M153.816,422.583L153.816,422.583c-1.289,0-2.333-1.045-2.333-2.333v-93
					c0-1.289,1.045-2.333,2.333-2.333l0,0c1.289,0,2.333,1.045,2.333,2.333v93C156.149,421.538,155.105,422.583,153.816,422.583z"/>
				<path style="fill:#FFD27A;" d="M167.149,422.583L167.149,422.583c-1.289,0-2.333-1.045-2.333-2.333v-93
					c0-1.289,1.045-2.333,2.333-2.333l0,0c1.289,0,2.333,1.045,2.333,2.333v93C169.483,421.538,168.438,422.583,167.149,422.583z"/>
				<path style="fill:#FFD27A;" d="M180.483,422.583L180.483,422.583c-1.289,0-2.333-1.045-2.333-2.333v-93
					c0-1.289,1.045-2.333,2.333-2.333h0c1.289,0,2.333,1.045,2.333,2.333v93C182.816,421.538,181.771,422.583,180.483,422.583z"/>
				<path style="fill:#FFD27A;" d="M193.816,422.583L193.816,422.583c-1.289,0-2.333-1.045-2.333-2.333v-93
					c0-1.289,1.045-2.333,2.333-2.333l0,0c1.289,0,2.333,1.045,2.333,2.333v93C196.149,421.538,195.105,422.583,193.816,422.583z"/>
				<path style="fill:#FFD27A;" d="M207.149,422.583L207.149,422.583c-1.289,0-2.333-1.045-2.333-2.333v-93
					c0-1.289,1.045-2.333,2.333-2.333l0,0c1.289,0,2.333,1.045,2.333,2.333v93C209.483,421.538,208.438,422.583,207.149,422.583z"/>
				<path style="fill:#FFD27A;" d="M220.483,422.583L220.483,422.583c-1.289,0-2.333-1.045-2.333-2.333v-93
					c0-1.289,1.045-2.333,2.333-2.333h0c1.289,0,2.333,1.045,2.333,2.333v93C222.816,421.538,221.771,422.583,220.483,422.583z"/>
			</g>
			<g>
				<g>
					<path style="fill:#FFFFFF;" d="M155.957,312.676l-9.256,16.031c-0.604,1.046,0.151,2.353,1.359,2.353h18.511
						c1.208,0,1.963-1.307,1.359-2.353l-9.256-16.031C158.07,311.63,156.561,311.63,155.957,312.676z"/>
					<path style="fill:#8BC4F0;" d="M156.376,316.216l-6.399,11.083c-0.418,0.723,0.104,1.627,0.939,1.627h12.798
						c0.835,0,1.357-0.904,0.939-1.627l-6.399-11.083C157.837,315.493,156.794,315.493,156.376,316.216z"/>
				</g>
				<g>
					
						<ellipse transform="matrix(0.2289 -0.9735 0.9735 0.2289 -155.1452 428.1061)" style="fill:#FFFFFF;" cx="192.649" cy="311.981" rx="8.792" ry="8.792"/>
					<g>
						<path style="fill:#C2EDE4;" d="M199.61,311.983c0,3.05-1.97,5.65-4.71,6.58c-0.02,0.02-0.05,0.02-0.07,0.03
							c-0.69,0.23-1.42,0.35-2.18,0.35c-0.87,0-1.71-0.16-2.48-0.46c-0.02,0-0.04-0.01-0.06-0.03c-2.59-1.01-4.42-3.53-4.42-6.47
							s1.83-5.46,4.42-6.47c0.02-0.02,0.04-0.03,0.06-0.03c0.77-0.3,1.61-0.46,2.48-0.46c0.76,0,1.49,0.12,2.18,0.35
							c0.02,0.01,0.05,0.01,0.07,0.03C197.64,306.333,199.61,308.933,199.61,311.983z"/>
						<path style="fill:#FF3B3B;" d="M190.171,305.483v13c-0.02,0-0.04-0.01-0.06-0.03c-2.59-1.01-4.42-3.53-4.42-6.47
							s1.83-5.46,4.42-6.47C190.13,305.493,190.15,305.483,190.171,305.483z"/>
						<path style="fill:#FF3B3B;" d="M199.61,311.983c0,3.05-1.97,5.65-4.71,6.58c-0.02,0.02-0.05,0.02-0.07,0.03v-13.22
							c0.02,0.01,0.05,0.01,0.07,0.03C197.64,306.333,199.61,308.933,199.61,311.983z"/>
					</g>
				</g>
			</g>
			<g>
				<g>
					<polygon style="fill:#520025;" points="141.628,425.876 140.921,425.169 145.524,420.566 145.524,309.813 141.171,305.459 
						141.878,304.752 146.524,309.399 146.524,420.98 					"/>
				</g>
				<g>
					<polygon style="fill:#520025;" points="232.337,425.876 227.44,420.98 227.44,309.399 232.087,304.752 232.794,305.459 
						228.44,309.813 228.44,420.566 233.044,425.169 					"/>
				</g>
			</g>
		</g>
	</g>
	<g>
		<rect x="344.005" y="132.984" style="fill:#520025;" width="11.063" height="313.789"/>
		<g>
			<path style="fill:#520025;" d="M319.195,170.644l72.564-2.401l1.206,20.545l-72.336,6.102c-0.126,0.011-0.251-0.019-0.36-0.085
				l-17.848-10.852c-0.434-0.264-0.462-0.907-0.051-1.206l16.495-11.988C318.962,170.688,319.076,170.648,319.195,170.644z"/>
			
				<text transform="matrix(0.9984 -0.0564 0.0564 0.9984 321.7984 188.878)" style="fill:#FFFFFF; font-family:'Montserrat-Medium'; font-size:16.4425px;">TRAVEL</text>
		</g>
		<g>
			<path style="fill:#520025;" d="M382.695,227.522L312.276,245.2l-5.519-19.826l69.413-21.247c0.121-0.037,0.249-0.034,0.37,0.007
				l19.738,6.836c0.481,0.166,0.643,0.789,0.305,1.167l-13.589,15.203C382.914,227.43,382.811,227.493,382.695,227.522z"/>
			
				<text transform="matrix(0.9746 -0.224 0.224 0.9746 333.2409 234.1472)" style="fill:#FFFFFF; font-family:'Montserrat-Medium'; font-size:16.4425px;">THE</text>
		</g>
		<g>
			<path style="fill:#520025;" d="M316.861,256.311l72.565-2.401l1.206,20.545l-72.336,6.102c-0.125,0.011-0.251-0.019-0.36-0.085
				l-17.848-10.852c-0.435-0.264-0.462-0.907-0.052-1.206l16.495-11.988C316.628,256.354,316.743,256.315,316.861,256.311z"/>
			
				<text transform="matrix(0.9986 -0.0521 0.0521 0.9986 319.4443 274.2814)" style="fill:#FFFFFF; font-family:'Montserrat-Medium'; font-size:16.4425px;">WORLD</text>
		</g>
		<g>
			<g>
				<path style="fill:#FFFFFF;" d="M343.982,278.314c1.809-0.539,3.643-0.773,5.481-0.936c1.841-0.131,3.689-0.189,5.56,0.061
					c-1.809,0.541-3.642,0.775-5.481,0.936C347.701,278.504,345.854,278.562,343.982,278.314z"/>
			</g>
			<g>
				<path style="fill:#FFFFFF;" d="M344.065,255.398c1.816-0.443,3.64-0.58,5.466-0.645c1.827-0.034,3.655,0.006,5.492,0.354
					c-1.816,0.445-3.64,0.582-5.466,0.645C347.731,255.783,345.902,255.743,344.065,255.398z"/>
			</g>
			<g>
				<path style="fill:#FFFFFF;" d="M344.065,237.148c1.736-0.814,3.542-1.331,5.365-1.778c1.83-0.416,3.676-0.761,5.594-0.805
					c-1.735,0.816-3.541,1.333-5.365,1.778C347.829,236.757,345.982,237.101,344.065,237.148z"/>
			</g>
			<g>
				<path style="fill:#FFFFFF;" d="M344.065,213.939c1.701-0.913,3.488-1.533,5.296-2.084c1.817-0.521,3.654-0.97,5.579-1.125
					c-1.7,0.915-3.488,1.535-5.296,2.083C347.827,213.333,345.99,213.783,344.065,213.939z"/>
			</g>
			<g>
				<path style="fill:#FFFFFF;" d="M344.107,192.939c0.87-0.361,1.78-0.517,2.678-0.682c0.901-0.16,1.807-0.257,2.714-0.342
					c1.816-0.135,3.639-0.19,5.484,0.065c-1.784,0.535-3.59,0.767-5.402,0.931c-0.907,0.065-1.815,0.12-2.727,0.12
					C345.942,193.05,345.026,192.99,344.107,192.939z"/>
			</g>
			<g>
				<path style="fill:#FFFFFF;" d="M344.232,169.773c1.777-0.429,3.56-0.552,5.345-0.604c1.785-0.02,3.572,0.034,5.364,0.396
					c-1.777,0.431-3.56,0.554-5.344,0.604C347.811,170.186,346.025,170.132,344.232,169.773z"/>
			</g>
		</g>
	</g>
	<g>
		<path style="fill:#520025;" d="M453.815,449.148h-395c-0.829,0-1.5-0.672-1.5-1.5s0.671-1.5,1.5-1.5h395
			c0.828,0,1.5,0.672,1.5,1.5S454.644,449.148,453.815,449.148z"/>
	</g>
	<g>
		<g>
			<g>
				<path style="fill:#FFA080;" d="M305.322,407.756l-5.709-5.054l0.004-0.005l-13.061-20.86c-2.559-0.215-5.117-0.466-7.675-0.763
					c-7.29-0.847-14.563-1.836-21.85-2.708c18.133,18.826,31.403,32.543,31.471,32.613l-0.003,0.002c0,0-8.289,13.408-10.939,18.863
					c-0.282,0.579,0.408,1.141,0.925,0.756l26.713-19.898C306.164,409.981,306.225,408.555,305.322,407.756z"/>
				<g>
					<g>
						<path style="fill:#8BC4F0;" d="M300.873,403.053c1.294,0.663,3.513,2.088,4.805,4.535c0,0-21.715,19.518-29.862,22.652
							c0,0,4.069-5.255,6.175-8.761c1.627-2.708,3.782-9.475,4.679-12.413c0.217-0.71,1.019-1.041,1.675-0.693
							c1.153,0.612,2.853,1.419,4.006,1.544c1.728,0.188,5.098-3.352,6.999-6.449C299.668,402.952,300.332,402.776,300.873,403.053z
							"/>
						<path style="fill:#FFFFFF;" d="M305.678,407.588c0,0,2.06,2.188,2.256,3.023c0.196,0.836-20.857,19.994-30.675,23.521
							c0,0-1.675-1.763-1.443-3.893L305.678,407.588z"/>
					</g>
					<g>
						<g>
							<path style="fill:#520025;" d="M286.232,410.981c0.509-0.127,1.028-0.206,1.564-0.224c0.272-0.006,0.539-0.002,0.851,0.09
								c0.133,0.041,0.389,0.134,0.484,0.455c0.045,0.178-0.003,0.289-0.047,0.41c-0.048,0.096-0.102,0.167-0.158,0.242
								c-0.438,0.474-0.897,0.72-1.369,0.983c-0.471,0.254-0.944,0.474-1.445,0.668l0.05-0.893c0.623,0.311,1.199,0.655,1.759,1.091
								c0.279,0.222,0.556,0.449,0.797,0.802c0.106,0.19,0.263,0.402,0.221,0.772c-0.004,0.181-0.112,0.322-0.21,0.459
								c-0.089,0.091-0.166,0.149-0.253,0.215c-0.661,0.411-1.302,0.581-1.962,0.748c-0.658,0.152-1.318,0.266-1.991,0.306
								l1.818-0.81c0.582-0.275,1.204-0.558,1.629-0.912c0.038-0.042,0.092-0.088,0.114-0.117c-0.023-0.008,0.004,0.008-0.021,0.013
								c0.011,0.035-0.032-0.059-0.096-0.141c-0.152-0.182-0.394-0.379-0.635-0.562c-0.497-0.36-1.066-0.689-1.613-0.994
								l-0.015-0.008c-0.236-0.131-0.321-0.429-0.19-0.665c0.058-0.105,0.15-0.18,0.254-0.22c0.462-0.175,0.939-0.361,1.396-0.555
								c0.442-0.204,0.929-0.418,1.231-0.669c0.062-0.054,0.081-0.117,0.084-0.031c0.04,0.069,0.043,0.002-0.059-0.04
								c-0.17-0.092-0.422-0.148-0.662-0.202C287.267,411.099,286.752,411.04,286.232,410.981z"/>
						</g>
						<g>
							<path style="fill:#520025;" d="M302.607,404.648c0.114,0.852,0.099,1.552,0.146,2.242c0.014,0.344,0.062,0.671,0.104,1.016
								c0.053,0.346,0.148,0.683,0.249,1.116c-0.406-0.147-0.755-0.453-0.976-0.832c-0.227-0.378-0.34-0.812-0.375-1.239
								c-0.013-0.428,0.036-0.852,0.179-1.246C302.073,405.314,302.277,404.94,302.607,404.648z"/>
						</g>
					</g>
				</g>
			</g>
			<g>
				<path style="fill:#FFA080;" d="M274.016,380.482c-7.797-0.962-15.582-2.017-23.394-2.85c-0.745-0.079-1.493-0.14-2.24-0.205
					c-2.459,29.233-4.397,52.852-4.798,57.742c-2.444,0.951-14.817,5.796-19.679,8.268c-0.574,0.292-0.363,1.156,0.281,1.161
					l33.309,0.262c1.205,0.009,2.114-1.091,1.877-2.273l-1.501-7.476l15.675-52.977
					C273.707,381.586,273.859,381.034,274.016,380.482z"/>
				<g>
					<g>
						<path style="fill:#8BC4F0;" d="M258.904,435.212c0.645,1.303,1.581,3.769,1.163,6.504c0,0-29.066,2.763-37.479,0.434
							c0,0,6.397-1.802,10.176-3.366c2.919-1.208,8.678-5.363,11.147-7.191c0.597-0.442,1.438-0.23,1.758,0.44
							c0.563,1.178,1.449,2.838,2.3,3.625c1.276,1.179,6.092,0.34,9.463-1.017C257.995,434.414,258.634,434.668,258.904,435.212z"/>
						<path style="fill:#FFFFFF;" d="M260.067,441.716c0,0,0.354,2.984,0.014,3.773c-0.34,0.788-28.66,3.657-38.65,0.648
							c0,0-0.297-2.414,1.157-3.987L260.067,441.716z"/>
					</g>
					<g>
						<g>
							<path style="fill:#520025;" d="M241.53,434c0.506,0.139,0.997,0.324,1.473,0.571c0.24,0.128,0.471,0.262,0.698,0.496
								c0.096,0.101,0.273,0.307,0.199,0.634c-0.048,0.177-0.144,0.251-0.242,0.335c-0.089,0.061-0.171,0.095-0.256,0.134
								c-0.615,0.198-1.135,0.188-1.675,0.185c-0.536-0.009-1.055-0.05-1.587-0.126l0.481-0.754
								c0.391,0.576,0.724,1.159,0.999,1.814c0.135,0.331,0.264,0.664,0.302,1.09c-0.001,0.217,0.033,0.479-0.186,0.781
								c-0.092,0.156-0.255,0.226-0.408,0.297c-0.122,0.036-0.218,0.048-0.326,0.064c-0.777,0.034-1.42-0.132-2.077-0.309
								c-0.647-0.19-1.279-0.415-1.885-0.71l1.981,0.185c0.642,0.045,1.323,0.104,1.867,0.003c0.053-0.018,0.123-0.032,0.157-0.046
								c-0.016-0.018-0.001,0.008-0.024,0.001c-0.007,0.036,0.001-0.067-0.014-0.17c-0.044-0.233-0.157-0.524-0.278-0.801
								c-0.257-0.557-0.591-1.123-0.919-1.657l-0.009-0.014c-0.141-0.23-0.069-0.531,0.161-0.673
								c0.102-0.063,0.219-0.083,0.329-0.067c0.488,0.074,0.995,0.146,1.489,0.201c0.485,0.039,1.014,0.091,1.401,0.02
								c0.081-0.017,0.129-0.062,0.088,0.014c0.002,0.079,0.037,0.023-0.031-0.064c-0.103-0.164-0.295-0.336-0.478-0.501
								C242.374,434.611,241.954,434.306,241.53,434z"/>
						</g>
						<g>
							<path style="fill:#520025;" d="M259.407,437.382c-0.319,0.798-0.675,1.401-0.972,2.026c-0.156,0.306-0.275,0.615-0.407,0.937
								c-0.123,0.328-0.206,0.668-0.33,1.095c-0.283-0.327-0.437-0.765-0.443-1.204c-0.013-0.44,0.102-0.874,0.28-1.264
								c0.199-0.38,0.449-0.725,0.767-0.997C258.615,437.701,258.976,437.475,259.407,437.382z"/>
						</g>
					</g>
				</g>
			</g>
			<g>
				<path style="fill:#FFFFFF;" d="M300.895,248.478c1.75-7.58,4.84-33.75,3.92-38.41c-0.92-4.67-7.92-28.75-7.92-28.75l-10.33-0.67
					l-40.12-3.63l-9.49,25.05l-0.35,0.9l-11,29.03c-2.27,6.01-4.05,12.19-5.31,18.49l-12.13,60.54c-1.24,6.22,0.48,12.67,4.67,17.43
					l35.44,40.33l-5.46,61.11l17.25,1.5c5.24-10.69,9.28-22.95,12.38-35.11l11.74,13.36l14.76-9.63c0,0-8.9-15.75-20.43-33.78
					c3.07-19.62,3.8-34.34,3.8-34.34S299.145,256.068,300.895,248.478z M251.845,328.788c-4.05-4.81-7.89-8.78-11.28-11.39l23.33-84
					L251.845,328.788z"/>
				<g>
					<g>
						<path style="fill:#520025;" d="M253.735,181.258c-0.04,0.57-0.86,14-7.87,19.61c-1.98,1.58-4.27,2.38-6.83,2.38
							c-0.72,0-1.46-0.06-2.22-0.19c-0.08-0.01-0.15-0.04-0.21-0.09l0.35-0.9c0.01-0.01,0.02,0,0.03,0
							c3.17,0.53,5.94-0.14,8.25-1.99c6.67-5.33,7.49-18.74,7.5-18.87c0.01-0.28,0.24-0.49,0.52-0.48
							C253.535,180.748,253.745,180.988,253.735,181.258z"/>
					</g>
					<g>
						<path style="fill:#520025;" d="M240.649,317.898c-0.038,0-0.075-0.004-0.112-0.013l-3.25-0.75
							c-0.269-0.063-0.437-0.331-0.375-0.6c0.063-0.269,0.333-0.435,0.6-0.375l2.426,0.56l-1.353-4.769
							c-0.075-0.266,0.079-0.542,0.345-0.618c0.264-0.075,0.542,0.079,0.617,0.345l1.583,5.583c0.048,0.17,0.003,0.354-0.119,0.481
							C240.916,317.843,240.784,317.898,240.649,317.898z"/>
					</g>
					<path style="fill:#520025;" d="M273.605,183.566c-0.27-0.021-0.516,0.183-0.537,0.459l-2.155,27.518l-5.72,7.373l2.539-35.317
						c0.02-0.275-0.188-0.515-0.463-0.534c-0.272-0.022-0.515,0.187-0.535,0.463l-3.667,51c-0.02,0.275,0.188,0.515,0.463,0.534
						c0.013,0.001,0.024,0.001,0.037,0.001c0.26,0,0.479-0.201,0.498-0.464l0.998-13.884l6.731-8.678
						c0.06-0.077,0.096-0.17,0.102-0.268l2.167-27.667C274.086,183.828,273.88,183.587,273.605,183.566z"/>
					<g>
						<path style="fill:#520025;" d="M281.815,404.085c-0.172,0-0.339-0.089-0.432-0.248c-0.14-0.238-0.059-0.545,0.18-0.684
							l13.5-7.875c0.236-0.141,0.544-0.06,0.684,0.18c0.14,0.238,0.059,0.545-0.18,0.684l-13.5,7.875
							C281.988,404.064,281.901,404.085,281.815,404.085z"/>
					</g>
					<path style="fill:#520025;" d="M294.046,185.508c-0.077-0.266-0.354-0.421-0.62-0.341c-0.265,0.077-0.417,0.354-0.341,0.619
						c0.047,0.162,3.098,10.747,4.876,20.391c-2.508,0.177-4.676-0.537-6.44-2.151c-5.927-5.423-5.708-19.106-5.705-19.244
						c0.006-0.276-0.213-0.505-0.489-0.511h-0.011c-0.271,0-0.494,0.217-0.5,0.489c-0.013,0.58-0.231,14.271,6.028,20.002
						c1.781,1.63,3.919,2.453,6.369,2.453c0.301,0,0.613-0.027,0.925-0.052c0.84,4.77,1.33,9.212,0.933,11.91
						c-0.543,3.698-4.844,27.833-9.823,55.78c-6.313,35.439-13.471,75.608-14.178,80.978c-0.069,0.525-0.184,1.226-0.332,2.048
						c-3.786,16.247-14.669,64.099-15.308,66.736l-14.181-1.653c-0.284-0.025-0.523,0.165-0.555,0.439
						c-0.032,0.274,0.165,0.522,0.439,0.555l16.626,1.938c0.02,0.002,0.039,0.003,0.059,0.003c0.25,0,0.466-0.188,0.496-0.442
						c0.031-0.274-0.165-0.522-0.439-0.555l-1.442-0.168c0.708-2.924,11.102-48.316,14.775-64.06
						c0.004,0.006,0.011,0.015,0.015,0.02c0.035-0.178,0.064-0.332,0.098-0.503c0.004-0.015,0.007-0.031,0.011-0.046
						c0,0-0.001-0.002-0.001-0.003c0.354-1.804,0.611-3.246,0.733-4.178c0.703-5.348,7.858-45.504,14.171-80.934
						c4.981-27.954,9.281-52.096,9.828-55.809C301.312,210.711,294.343,186.533,294.046,185.508z"/>
					<path style="fill:#520025;" d="M248.167,368.5c0.1-3.352,0.31-6.694,0.535-10.035c0.215-3.342,0.507-6.676,0.8-10.011
						c0.317-3.332,0.635-6.665,1.031-9.99l0.597-4.987c0.236-1.659,0.437-3.321,0.702-4.978c-0.04,1.677-0.144,3.348-0.214,5.022
						l-0.319,5.013c-0.215,3.342-0.508,6.676-0.802,10.01c-0.318,3.332-0.636,6.664-1.033,9.989
						C249.079,361.861,248.678,365.185,248.167,368.5z"/>
					<path style="fill:#520025;" d="M272.417,396.333c0.386-2.545,0.863-5.066,1.346-7.586c0.471-2.522,1.005-5.03,1.526-7.539
						l1.634-7.512c0.281-1.25,0.553-2.502,0.81-3.757c0.291-1.25,0.52-2.508,0.768-3.772c-0.063,2.577-0.432,5.133-0.822,7.672
						c-0.392,2.541-0.892,5.062-1.412,7.576c-0.546,2.509-1.107,5.015-1.756,7.5C273.87,391.402,273.204,393.883,272.417,396.333z"
						/>
				</g>
			</g>
		</g>
		<g>
			<g>
				<g>
					<path style="fill:#FFA080;" d="M295.796,82.498c-0.2-0.26-0.4-0.47-0.6-0.64c-1.375-1.159-2.845-0.454-3.651,0.122v-4.997
						c0-8.055-6.53-14.585-14.585-14.585s-14.585,6.53-14.585,14.585v4.996c-0.866-0.616-2.493-1.38-3.939,0.149
						c-0.1,0.11-0.21,0.23-0.31,0.37c-0.55,0.72-0.72,1.68-0.6,2.7c0.309,2.765,2.709,5.942,5.01,5.91
						c0.999,7.081,7.067,12.534,14.424,12.534c7.357,0,13.425-5.453,14.424-12.535c2.311,0.032,4.722-3.174,5.022-5.95v-0.01
						C296.505,84.148,296.335,83.208,295.796,82.498z"/>
					<g>
						<g>
							<path style="fill:#520025;" d="M279.094,76.604c0.617-0.402,1.249-0.573,1.927-0.661c0.672-0.085,1.364-0.012,2.034,0.145
								c0.671,0.153,1.318,0.446,1.883,0.835c0.576,0.378,1.026,0.913,1.383,1.461c0.116,0.178,0.066,0.417-0.112,0.533
								c-0.122,0.08-0.273,0.081-0.394,0.016l-0.041-0.022c-0.522-0.283-0.996-0.559-1.515-0.719
								c-0.502-0.184-1.013-0.309-1.538-0.366c-0.522-0.069-1.051-0.067-1.591-0.078c-0.533-0.009-1.108,0.015-1.651-0.027
								l-0.103-0.008c-0.332-0.026-0.581-0.316-0.555-0.648C278.837,76.869,278.944,76.703,279.094,76.604z"/>
						</g>
						<g>
							<path style="fill:#520025;" d="M274.688,77.719c-0.543,0.042-1.118,0.019-1.651,0.027c-0.539,0.011-1.069,0.009-1.591,0.078
								c-0.525,0.057-1.035,0.183-1.537,0.366c-0.519,0.16-0.993,0.436-1.515,0.719l-0.04,0.022
								c-0.187,0.102-0.421,0.032-0.522-0.155c-0.07-0.129-0.058-0.28,0.016-0.394c0.357-0.548,0.807-1.082,1.383-1.461
								c0.565-0.389,1.212-0.682,1.883-0.835c0.67-0.157,1.361-0.23,2.034-0.145c0.677,0.088,1.31,0.259,1.927,0.661
								c0.279,0.182,0.358,0.556,0.176,0.835c-0.106,0.162-0.277,0.257-0.456,0.272L274.688,77.719z"/>
						</g>
						<g>
							<path style="fill:#520025;" d="M276.249,92.777c1.257-0.031,2.463-0.122,3.605-0.439c0.57-0.158,1.105-0.399,1.613-0.696
								c0.509-0.304,0.945-0.714,1.389-1.169c-0.237,0.577-0.591,1.15-1.108,1.557c-0.504,0.416-1.103,0.715-1.727,0.899
								C278.767,93.26,277.434,93.225,276.249,92.777z"/>
						</g>
						<g>
							<path style="fill:#520025;" d="M279.552,94.109c0.484-0.185,0.965-0.296,1.418-0.485c0.466-0.16,0.889-0.367,1.271-0.712
								c-0.178,0.511-0.694,0.811-1.164,1C280.585,94.077,280.07,94.176,279.552,94.109z"/>
						</g>
						<g>
							<path style="fill:#520025;" d="M277.277,81.304c0.191,0.813,0.289,1.633,0.288,2.471c0.004,0.836-0.117,1.69-0.393,2.511
								c-0.298,0.818-0.683,1.477-0.713,2.168c-0.012,0.339,0.047,0.681,0.262,0.942c0.211,0.267,0.563,0.476,0.981,0.417
								c-0.349,0.265-0.897,0.191-1.283-0.079c-0.406-0.283-0.628-0.776-0.679-1.242c-0.12-0.97,0.333-1.803,0.561-2.508
								C276.82,84.543,276.915,82.935,277.277,81.304z"/>
						</g>
						<g>
							<path style="fill:#520025;" d="M258.975,84.527c0.017-0.5,0.172-1.07,0.657-1.436c0.232-0.178,0.555-0.288,0.885-0.25
								c0.331,0.031,0.616,0.198,0.842,0.387c0.463,0.391,0.716,0.891,0.945,1.357c0.227,0.465,0.407,0.925,0.613,1.389
								c0.102,0.23-0.002,0.498-0.232,0.6c-0.194,0.086-0.417,0.025-0.542-0.135l-0.013-0.017c-0.265-0.339-0.667-0.601-1.1-0.664
								c-0.217-0.032-0.368-0.024-0.497,0.059c-0.137,0.083-0.251,0.253-0.314,0.441c-0.121,0.371,0.038,0.878,0.344,1.287
								c0.294,0.405,0.73,0.779,1.306,0.764c-0.55,0.245-1.214-0.05-1.653-0.447c-0.438-0.398-0.835-1.011-0.721-1.759
								c0.055-0.356,0.236-0.702,0.552-0.951c0.323-0.259,0.771-0.32,1.102-0.271c0.675,0.09,1.308,0.44,1.712,0.997l-0.787,0.448
								c-0.183-0.466-0.383-0.939-0.55-1.4c-0.175-0.448-0.37-0.88-0.641-1.19c-0.279-0.309-0.625-0.46-1.027-0.275
								C259.456,83.622,259.172,84.06,258.975,84.527z"/>
						</g>
						<g>
							<path style="fill:#520025;" d="M294.944,84.527c-0.198-0.467-0.481-0.904-0.88-1.068c-0.403-0.185-0.749-0.035-1.028,0.275
								c-0.271,0.31-0.466,0.742-0.641,1.19c-0.167,0.461-0.367,0.934-0.55,1.4l-0.787-0.448c0.404-0.557,1.037-0.906,1.712-0.997
								c0.331-0.049,0.778,0.012,1.102,0.271c0.316,0.249,0.497,0.595,0.552,0.951c0.113,0.749-0.283,1.362-0.721,1.759
								c-0.439,0.398-1.103,0.692-1.653,0.447c0.576,0.015,1.012-0.359,1.306-0.764c0.305-0.409,0.464-0.916,0.344-1.287
								c-0.062-0.188-0.177-0.358-0.314-0.441c-0.129-0.083-0.28-0.091-0.497-0.059c-0.432,0.063-0.834,0.325-1.1,0.664
								l-0.013,0.017c-0.155,0.198-0.441,0.232-0.638,0.078c-0.167-0.131-0.218-0.356-0.135-0.542
								c0.205-0.463,0.385-0.923,0.613-1.389c0.229-0.466,0.482-0.966,0.945-1.357c0.226-0.189,0.511-0.356,0.842-0.387
								c0.33-0.037,0.653,0.072,0.885,0.25C294.772,83.457,294.927,84.027,294.944,84.527z"/>
						</g>
						<path style="fill:#520025;" d="M283.218,84.106c0,1.227-0.528,2.221-1.18,2.221c-0.652,0-1.18-0.994-1.18-2.221
							c0-1.227,0.528-2.221,1.18-2.221C282.69,81.885,283.218,82.879,283.218,84.106z"/>
						<path style="fill:#520025;" d="M271.501,84.106c0,1.227,0.528,2.221,1.18,2.221c0.652,0,1.18-0.994,1.18-2.221
							c0-1.227-0.528-2.221-1.18-2.221C272.029,81.885,271.501,82.879,271.501,84.106z"/>
					</g>
				</g>
				<path style="fill:#520025;" d="M290.315,66.481c-0.417-3.917-5.333-8.917-9-9.833c-3.667-0.917-4.417,2.75-4.417,2.75
					c-1.603-1.603-3.451-2.993-5.515-3.468c0.651,1.957,0.141,4.167-2.294,5.348c-3.052,1.48-6.68,3.005-9.434,4.981
					c-7.777,5.577-5.651,9.985-4.987,10.972c1.877,2.793,3.773,4.876,3.773,4.876c1.75-1.792,3.875-0.125,3.875-0.125l2.458,2.417
					c1.708-1.667,1.083-11.208,1.083-11.208s13.875,3.583,16.917,1.958c3.042-1.625,1.458-4.167,1.458-4.167
					c1.875,0.625,3.417,2.917,4.292,7.333c0.875,4.417,1.701,4.73,1.701,4.73c1.588-1.517,2.858-1.857,3.653-1.779
					C301.315,74.273,290.315,66.481,290.315,66.481z"/>
			</g>
			<g>
				<g>
					<path style="fill:#FFD27A;" d="M258.189,67.122c0,0,1.304-10.56,3.248-13.152c1.944-2.592,18.214-4.608,22.462-1.656
						c4.248,2.952,6.543,14.304,6.543,14.304S271.616,57.097,258.189,67.122z"/>
					<path style="fill:#FFD27A;" d="M296.405,85.148c0.1-1-0.098-1.919-0.61-2.65c-0.465-0.665-2.007-1.067-2.207-1.237
						c3.32-10.63-1.861-14.472-13.19-15.613c-12.417-1.25-22.521,2.125-23.771,8.625c-1.005,5.225,1.38,7.122,2.09,7.572
						c-0.1,0.11-0.493,0.513-0.593,0.653c-0.55,0.72-0.72,1.68-0.6,2.7c-17.91-9.82,1.18-30.24,24.13-25.63
						C300.435,63.348,303.296,76.528,296.405,85.148z"/>
				</g>
				<g>
					<g>
						<path style="fill:#520025;" d="M258.774,63.356c2.114-1.622,4.599-2.712,7.136-3.547c2.554-0.805,5.216-1.279,7.895-1.417
							c2.681-0.115,5.384,0.068,7.997,0.667c2.606,0.592,5.169,1.474,7.43,2.881c-1.22-0.52-2.466-0.951-3.739-1.282
							c-1.263-0.356-2.542-0.652-3.837-0.843c-2.582-0.409-5.198-0.557-7.801-0.424c-2.609,0.11-5.193,0.544-7.735,1.155
							c-1.268,0.323-2.52,0.716-3.745,1.187C261.139,62.178,259.936,62.718,258.774,63.356z"/>
					</g>
					<g>
						<path style="fill:#520025;" d="M276.065,51.398c1.733,1.269,3.357,2.577,5.103,3.681c0.861,0.564,1.754,1.075,2.691,1.468
							c0.939,0.39,1.914,0.684,2.998,0.727c-1.024,0.376-2.191,0.296-3.25,0.012c-1.077-0.273-2.061-0.786-2.978-1.365
							c-0.911-0.594-1.762-1.267-2.524-2.029C277.34,53.135,276.632,52.319,276.065,51.398z"/>
					</g>
					<g>
						<path style="fill:#520025;" d="M269.607,51.856c-0.289,0.986-0.795,1.896-1.396,2.732c-0.601,0.839-1.337,1.583-2.151,2.232
							c-0.818,0.645-1.75,1.155-2.735,1.494c-0.975,0.372-2.038,0.469-3.05,0.417c0.964-0.364,1.892-0.657,2.745-1.136
							c0.854-0.456,1.679-0.953,2.428-1.565C266.977,54.849,268.307,53.421,269.607,51.856z"/>
					</g>
				</g>
			</g>
		</g>
		<g>
			<g>
				<g>
					<path style="fill:#FFA080;" d="M209.527,160.098c1.143-2.072,2.297-4.144,3.486-6.196c0.74-2.04,1.552-4.058,2.412-6.058
						c-12.492-17.317-26.15-36.377-26.15-36.377l-7.06,4.29c3.79,10.744,15.61,34.743,23.396,50.19
						C206.854,163.885,208.239,161.9,209.527,160.098z"/>
					<path style="fill:#FFA080;" d="M183.046,117.988c0,0-9.957-8.258-9.691-9.119c0.266-0.861,3.415,1.135,3.415,1.135
						s-4.236-4.51-3.95-5.006c0.285-0.496,5.122,3.15,5.122,3.15s-3.763-5.829-3.366-6.233c0.397-0.404,5.082,4.119,5.082,4.119
						s-2.35-5.108-2.064-5.389s7.542,6.526,7.542,6.526s1.243-0.613,1.68-0.69c0.437-0.077,4.025,7.166,4.025,7.166L183.046,117.988
						z"/>
				</g>
				<g>
					<g>
						<rect x="177.036" y="85.764" style="fill:#C2EDE4;" width="9.78" height="30.198"/>
						
							<rect x="172.544" y="84.827" transform="matrix(0.9581 -0.2863 0.2863 0.9581 -21.1804 54.978)" style="fill:#C2EDE4;" width="9.78" height="30.198"/>
						<g>
							<g>
								<path style="fill:#520025;" d="M184.232,105.981c-0.216,0-0.415-0.141-0.479-0.358l-5.75-19.417
									c-0.078-0.265,0.073-0.543,0.337-0.622c0.266-0.079,0.543,0.073,0.622,0.337l5.75,19.417
									c0.078,0.265-0.073,0.543-0.337,0.622C184.327,105.975,184.279,105.981,184.232,105.981z"/>
							</g>
							<g>
								<path style="fill:#520025;" d="M171.878,96.023c-0.208,0-0.402-0.131-0.473-0.338c-0.089-0.261,0.05-0.545,0.312-0.635
									l7.688-2.625c0.261-0.087,0.546,0.05,0.635,0.312c0.089,0.261-0.05,0.545-0.311,0.635l-7.688,2.625
									C171.986,96.014,171.932,96.023,171.878,96.023z"/>
							</g>
							<g>
								<path style="fill:#520025;" d="M179.003,114.898c-0.221,0-0.424-0.148-0.483-0.372l-4-15.125
									c-0.071-0.267,0.088-0.54,0.355-0.611c0.267-0.068,0.54,0.088,0.611,0.355l4,15.125c0.071,0.267-0.088,0.541-0.355,0.611
									C179.088,114.892,179.045,114.898,179.003,114.898z"/>
							</g>
							<g>
								<path style="fill:#520025;" d="M180.878,114.335c-0.225,0-0.429-0.152-0.485-0.38c-2.765-11.184-2.765-11.352-2.765-11.433
									c0-0.276,0.224-0.5,0.5-0.5c0.258,0,0.47,0.195,0.497,0.445c0.082,0.457,1.678,6.958,2.738,11.247
									c0.066,0.268-0.097,0.539-0.365,0.605C180.958,114.33,180.917,114.335,180.878,114.335z M178.628,102.523h0.01H178.628z"/>
							</g>
						</g>
					</g>
					<path style="fill:#FFA080;" d="M186.815,106.481c0,0-3.125-1.208-4-0.583s3.167,3.667,3.917,3.958c0,0-3,4.583,0.25,6.292
						l2.458-1.5L186.815,106.481z"/>
				</g>
			</g>
			<path style="fill:#520025;" d="M248.388,124.213c0.025-4.291,1.014-8.549,3.087-12.307c1.539-2.79,3.73-5.425,6.716-6.258
				c7.167-2,34.875-2.25,45.708,4.583c10.833,6.833-0.5,71-3,71.667s-36.667,2.167-45.167-4.667
				C248.732,171.604,248.316,136.446,248.388,124.213z"/>
			<g>
				<rect x="270.796" y="100.566" style="fill:#FFA080;" width="12.326" height="11.85"/>
				<path style="fill:#520025;" d="M283.117,102.272v2.36c-1.868,0.873-3.958,1.365-6.159,1.365c-2.2,0-4.29-0.492-6.159-1.365
					v-2.36c1.868,0.873,3.958,1.364,6.159,1.364C279.158,103.636,281.248,103.144,283.117,102.272z"/>
			</g>
			<g>
				<path style="fill:#FFA080;" d="M301.186,121.997c-2.489-8.652-16.762-12.888-22.332-14.231l-2.268-0.191
					c-5.716,0.393-20.496,2.187-24.395,10.301c-3.546,7.38-4.675,56.715-4.675,56.715l48.807,4.104
					C296.324,178.697,303.449,129.865,301.186,121.997z"/>
				<g>
					<g>
						<g>
							<path style="fill:#467CA6;" d="M246.986,174.712l-1.622,3.986c-0.183,0.449,0.102,0.949,0.583,1.011
								c6.313,0.818,42.43,5.391,51.336,4.212c0.451-0.06,0.729-0.518,0.594-0.952l-1.351-4.343
								c-0.09-0.288-0.346-0.493-0.647-0.517l-48.15-3.854C247.409,174.228,247.108,174.413,246.986,174.712z"/>
							<path style="fill:#8BC4F0;" d="M194.798,146.264c-0.201,0.296-0.247,0.663-0.127,1c0.362,1.014,1.142,3.152,1.395,3.467
								c0.29,0.363,11.142-9.392,13.934-11.913c0.386-0.349,0.482-0.911,0.231-1.367c-0.847-1.539-2.788-4.858-3.998-5.304
								C204.815,131.626,196.526,143.715,194.798,146.264z"/>
							<path style="fill:#8BC4F0;" d="M349.395,125.398c-5.798-2.126-42.117-10.896-58.305-14.768
								c0.778-1.083,1.003-1.894,0.35-2.232c-3.375-1.75-8.313-2.531-8.313-2.531l-0.021,3.119l0.209-0.213l-4.546,6.357
								l-4.08,5.702l-3.999-12.622l0.109,0.016l-0.016-2.563c0,0-5.656-0.266-8.969,2.234c-0.615,0.464-0.549,1.328-0.037,2.426
								c-1.422,0.489-2.909,1.076-4.383,1.794c-0.24,0.1-0.47,0.22-0.71,0.34c-0.83,0.43-1.91,1.06-3.2,1.89
								c-9.06,5.81-27.95,20.83-35.25,35.72l-11.17-15.17l-11.83,12.33c0,0,14.16,32,21.16,33.67s32.17-36.17,32.17-36.17
								s-1,9.7-1.6,18.53c-0.14,2.05-0.26,4.06-0.34,5.88c-0.1,2.43-0.14,4.53-0.06,6.01c0,0,45.5,4.63,50.38,3.87
								c0,0,0.69-5.32,1.56-12.35c0.19-1.53,0.39-3.14,0.59-4.79c1.46-11.99,3.11-26.27,2.97-28.6l28.65,8.8l-11.53,4.2l10.13,13
								c0,0,43.09-9.58,44.58-16.21C375.736,134.898,356.895,128.148,349.395,125.398z"/>
							<path style="fill:#8BC4F0;" d="M333.516,159.348c-0.34,0.22-2.56,0.73-3.61,0.97c-0.35,0.08-0.7-0.01-0.97-0.25
								c-0.34-0.29-0.85-0.74-1.49-1.31c-3.22-2.85-9.51-8.57-10.89-10.89c-0.24-0.4-0.34-0.69-0.25-0.86
								c0.59-1.14,4.12-2.67,5.75-3.32c0.48-0.2,1.03-0.03,1.33,0.39C325.546,147.158,333.915,159.108,333.516,159.348z"/>
						</g>
						<g>
							<g>
								<g>
									<path style="fill:#520025;" d="M261.857,110.481c1.975,1.957,3.765,4.034,5.579,6.09l2.699,3.096
										c0.914,1.019,1.804,2.058,2.764,3.065c-2.404-1.429-4.385-3.441-6.216-5.503
										C264.876,115.131,263.208,112.915,261.857,110.481z"/>
								</g>
								<g>
									<path style="fill:#520025;" d="M277.565,122.481c2.214-1.93,4.515-3.692,6.771-5.506c1.141-0.891,2.247-1.817,3.347-2.748
										c1.085-0.949,2.179-1.887,3.09-3.038c-0.581,1.362-1.537,2.543-2.551,3.602c-1.016,1.07-2.118,2.049-3.263,2.965
										C282.655,119.569,280.216,121.205,277.565,122.481z"/>
								</g>
							</g>
							<g>
								<path style="fill:#520025;" d="M250.409,142.054c0.013,0.68-0.226,1.189-0.525,1.656c-0.325,0.45-0.71,0.859-1.35,1.094
									c-0.015-0.682,0.224-1.19,0.525-1.656C249.385,142.699,249.771,142.29,250.409,142.054z"/>
							</g>
							<g>
								<g>
									<path style="fill:#520025;" d="M209.899,138.898c2.332,2.532,4.419,5.243,6.446,7.997c2.003,2.772,3.944,5.589,5.638,8.586
										c-2.334-2.531-4.42-5.242-6.446-7.997C213.536,144.71,211.595,141.893,209.899,138.898z"/>
								</g>
								<g>
									<path style="fill:#520025;" d="M220.982,150.231c-0.495,0.366-0.973,0.426-1.446,0.415
										c-0.471-0.042-0.938-0.159-1.387-0.582c0.495-0.368,0.973-0.429,1.446-0.416
										C220.066,149.693,220.533,149.81,220.982,150.231z"/>
								</g>
								<g>
									<path style="fill:#520025;" d="M196.69,150.314c1.792-2.062,3.782-3.894,5.82-5.67c2.058-1.753,4.165-3.449,6.472-4.913
										c-1.79,2.064-3.78,3.896-5.82,5.67C201.103,147.153,198.996,148.848,196.69,150.314z"/>
								</g>
								<g>
									<path style="fill:#520025;" d="M207.065,133.273c-0.85,1.165-1.732,2.296-2.642,3.394
										c-0.894,1.109-1.837,2.188-2.674,3.298c-0.2,0.263-0.43,0.577-0.52,0.779c-0.009,0.018-0.009,0.035-0.005-0.004
										c-0.001-0.023,0.009-0.062-0.025-0.155c-0.027-0.091-0.146-0.204-0.229-0.23c-0.177-0.049-0.146-0.014-0.155-0.024
										c0.006-0.002,0.026-0.005,0.061-0.021c0.143-0.066,0.283-0.115,0.431-0.198c0.591-0.296,1.161-0.713,1.735-1.115
										c1.132-0.837,2.259-1.719,3.399-2.6c-0.866,1.155-1.823,2.239-2.909,3.207c-0.539,0.492-1.115,0.942-1.774,1.341
										c-0.157,0.106-0.354,0.18-0.535,0.266c-0.046,0.021-0.112,0.044-0.193,0.064c-0.048,0.009-0.074,0.02-0.152,0.023l-0.101,0
										c-0.056-0.007-0.113-0.02-0.166-0.04c-0.124-0.042-0.279-0.186-0.32-0.321c-0.051-0.134-0.041-0.221-0.038-0.287
										c0.014-0.128,0.042-0.196,0.065-0.261c0.199-0.454,0.411-0.712,0.631-1.025c0.902-1.161,1.876-2.207,2.898-3.221
										C204.862,135.128,205.936,134.171,207.065,133.273z"/>
								</g>
								<g>
									<path style="fill:#520025;" d="M195.149,148.064c0.831-0.993,1.825-1.727,2.858-2.401c1.049-0.647,2.139-1.232,3.392-1.557
										c-0.829,0.995-1.824,1.729-2.858,2.401C197.49,147.153,196.401,147.738,195.149,148.064z"/>
								</g>
							</g>
							<g>
								<g>
									<path style="fill:#520025;" d="M330.628,142.21c3.537-1.256,7.161-2.177,10.813-2.975c1.829-0.382,3.667-0.732,5.521-1.001
										c1.849-0.278,3.725-0.472,5.604-0.462c-1.837,0.376-3.642,0.824-5.461,1.229l-5.455,1.211
										C338.001,140.977,334.348,141.719,330.628,142.21z"/>
								</g>
								<g>
									<path style="fill:#520025;" d="M347.378,134.398c-1.776,1.124-3.595,2.062-5.374,3.062
										c-0.898,0.484-1.766,1.005-2.626,1.538c-0.852,0.548-1.686,1.107-2.375,1.901c0.333-1.021,1.113-1.845,1.908-2.526
										c0.807-0.692,1.693-1.273,2.607-1.786C343.361,135.588,345.307,134.79,347.378,134.398z"/>
								</g>
							</g>
							<g>
								<g>
									<path style="fill:#520025;" d="M271.815,160.898c1.983-1.864,4.14-3.48,6.339-5.035c2.216-1.53,4.476-2.998,6.911-4.215
										c-1.982,1.866-4.139,3.481-6.339,5.035C276.509,158.211,274.249,159.678,271.815,160.898z"/>
								</g>
								<g>
									<path style="fill:#520025;" d="M269.44,166.273c2.302-2.014,4.773-3.777,7.285-5.478c2.529-1.676,5.1-3.288,7.84-4.647
										c-2.301,2.016-4.771,3.779-7.284,5.478C274.751,163.299,272.18,164.912,269.44,166.273z"/>
								</g>
							</g>
							<g>
								<path style="fill:#520025;" d="M246.753,175.21c4.17,0.204,8.329,0.503,12.488,0.808l12.467,0.998l12.455,1.107
									c2.075,0.199,4.151,0.373,6.227,0.537c2.076,0.165,4.152,0.372,6.238,0.362c-4.171,0.334-8.355,0.05-12.52-0.132
									c-4.168-0.218-8.326-0.56-12.485-0.879c-4.153-0.396-8.307-0.764-12.453-1.231
									C255.025,176.316,250.883,175.824,246.753,175.21z"/>
							</g>
							<g>
								<g>
									<g>
										<path style="fill:none;stroke:#FFFFFF;stroke-linecap:round;stroke-linejoin:round;" d="M270.895,119.482
											c-0.749,0.94-1.517,1.919-1.806,3.085c-0.33,1.331,0.009,2.741,0.532,4.009c0.522,1.268,1.227,2.459,1.675,3.755
											c0.889,2.572,0.677,5.5-0.546,7.928"/>
										<g>
											<path style="fill:#FFFFFF;" d="M270.089,137.869c-0.193,0.368-0.051,0.822,0.317,1.015s0.822,0.051,1.015-0.317
												c0.193-0.368,0.051-0.822-0.317-1.015C270.736,137.359,270.282,137.501,270.089,137.869z"/>
										</g>
									</g>
								</g>
								<g>
									<g>
										<path style="fill:none;stroke:#FFFFFF;stroke-linecap:round;stroke-linejoin:round;" d="M279.585,118.91
											c1.197,3.335,2.404,6.716,2.713,10.246c0.284,3.244-0.202,6.496-0.738,9.712"/>
										<g>
											<path style="fill:#FFFFFF;" d="M280.807,138.721c-0.06,0.411,0.224,0.793,0.635,0.853
												c0.411,0.06,0.793-0.224,0.853-0.635c0.06-0.411-0.224-0.793-0.635-0.853
												C281.249,138.025,280.867,138.31,280.807,138.721z"/>
										</g>
									</g>
								</g>
							</g>
							<g>
								<g>
									<path style="fill:#520025;" d="M333.064,158.156c-1.852-2.008-3.454-4.188-4.995-6.409c-1.516-2.238-2.969-4.52-4.17-6.974
										c1.854,2.007,3.456,4.187,4.994,6.409C330.408,153.422,331.861,155.703,333.064,158.156z"/>
								</g>
								<g>
									<path style="fill:#520025;" d="M317.769,146.123c1.064,0.974,2.091,1.974,3.082,3c1.004,1.01,1.973,2.067,2.984,3.022
										c0.239,0.228,0.526,0.491,0.717,0.602c0.017,0.011,0.033,0.013-0.004,0.005c-0.023-0.001-0.061-0.016-0.157,0.008
										c-0.094,0.017-0.219,0.122-0.254,0.203c-0.068,0.17-0.03,0.144-0.041,0.152c-0.001-0.006-0.002-0.027-0.014-0.063
										c-0.05-0.149-0.083-0.294-0.149-0.45c-0.229-0.62-0.581-1.232-0.917-1.848c-0.707-1.218-1.46-2.434-2.21-3.665
										c1.053,0.988,2.024,2.059,2.867,3.244c0.429,0.59,0.813,1.212,1.137,1.911c0.088,0.167,0.14,0.372,0.206,0.561
										c0.015,0.048,0.032,0.116,0.042,0.199c0.004,0.049,0.012,0.076,0.006,0.153l-0.011,0.101
										c-0.013,0.055-0.033,0.11-0.058,0.161c-0.056,0.119-0.216,0.257-0.354,0.282c-0.138,0.036-0.224,0.016-0.289,0.006
										c-0.125-0.028-0.19-0.063-0.253-0.094c-0.429-0.247-0.662-0.487-0.949-0.74c-1.055-1.025-1.987-2.108-2.882-3.235
										C319.37,148.517,318.537,147.344,317.769,146.123z"/>
								</g>
								<g>
									<path style="fill:#520025;" d="M330.658,159.44c-0.895-0.935-1.516-2.004-2.072-3.105
										c-0.528-1.115-0.989-2.261-1.174-3.543c0.897,0.934,1.518,2.003,2.072,3.105
										C330.01,157.012,330.471,158.159,330.658,159.44z"/>
								</g>
							</g>
						</g>
					</g>
					<g>
						<path style="fill:#520025;" d="M257.396,111.858l-3.91,1.99l-2.59,1.32v25.33l2.59,3.48v12.76l-6.52,6.52
							c-0.14,2.05-0.26,4.06-0.34,5.88l10.2-10.2c0.17-0.17,0.28-0.36,0.37-0.57c0.03-0.06,0.06-0.13,0.09-0.2
							c0-0.02,0.01-0.04,0.02-0.06c0.01-0.03,0.01-0.05,0.02-0.08c0.03-0.1,0.04-0.21,0.06-0.32c0-0.04,0.01-0.08,0.01-0.12v-13.13
							l3.42-3.96v-30.38L257.396,111.858z"/>
						<path style="fill:#FFFFFF;" d="M253.44,113.898c0.131,2.084,0.234,4.168,0.279,6.252c0.063,2.084,0.114,4.167,0.126,6.251
							c0.025,4.167-0.002,8.334-0.129,12.5l-0.112-0.28l2.899,3.222l-0.376,0c1.139-1.071,2.269-2.152,3.438-3.194
							c-0.997,1.208-2.034,2.377-3.062,3.556l-0.173,0.198l-0.203-0.199l-3.101-3.028l-0.108-0.106l-0.004-0.174
							c-0.085-4.167-0.071-8.334-0.004-12.5c0.033-2.083,0.105-4.166,0.189-6.249C253.165,118.063,253.289,115.98,253.44,113.898z"
							/>
					</g>
					<g>
						<path style="fill:#520025;" d="M294.785,145.838l4-3.7l3.25-29.08l-3.19-0.79l-3.82-0.94l-2.77-0.68l-3.33,30.39l2.07,3.56
							l-1.52,12.57c-0.02,0.11-0.02,0.22-0.01,0.34v0.04c0,0.02,0,0.04,0.01,0.05c0.03,0.48,0.24,0.95,0.62,1.31l8.41,7.76
							c0.19-1.53,0.39-3.14,0.59-4.79l-5.62-5.19L294.785,145.838z"/>
						<path style="fill:#FFFFFF;" d="M299.94,113.398c-0.067,2.305-0.163,4.606-0.315,6.903c-0.134,2.298-0.282,4.595-0.468,6.889
							c-0.372,4.587-0.796,9.17-1.322,13.743l-0.02,0.175l-0.122,0.095l-3.713,2.893l-0.239,0.186l-0.143-0.245
							c-0.85-1.46-1.716-2.909-2.533-4.39c1.016,1.352,1.984,2.736,2.967,4.109l-0.382-0.059l3.536-3.107l-0.142,0.27
							c0.307-4.593,0.717-9.177,1.178-13.756c0.231-2.29,0.5-4.576,0.782-6.861C299.27,117.958,299.591,115.676,299.94,113.398z"/>
					</g>
				</g>
			</g>
			<g>
				<path style="fill:#FFA080;" d="M327.445,158.758c-9.75,2.1-19.19,3.96-25.67,4.86c-0.74,1.4-2.32,4.34-3.73,6.76
					c-1.25,2.12-2.37,3.84-2.72,3.81c-0.86-0.08,0.28-3.26,0.38-3.56c-0.25,0.35-3.53,5.06-4.05,4.9c-0.53-0.17,1.86-5.36,1.99-5.66
					c-0.28,0.28-4.91,4.88-5.38,4.59c-0.46-0.3,2.76-5.52,2.95-5.83c-0.26,0.19-4.5,3.35-4.82,3.14c-0.34-0.22,4.79-8.74,4.79-8.74
					s-4.31-0.38-4.48-0.79c-0.17-0.4,9.1-5.84,9.6-6.13c0.01,0,0.02,0,0.03-0.01c0.2-0.08,1.06-0.43,2.45-0.99
					c0.36-0.15,0.75-0.31,1.18-0.48c3.62-1.48,9.6-3.91,16.59-6.76C317.935,150.188,324.225,155.908,327.445,158.758z"/>
				<path style="fill:#FFA080;" d="M296.335,156.098c-0.01,0.01-0.02,0.01-0.03,0.01c0.01-0.02,0.02-0.02,0.02-0.02L296.335,156.098
					z"/>
			</g>
		</g>
	</g>
</g>
<g id="DESIGNED_BY_FREEPIK">
	<g id="XMLID_258_">
		<g id="XMLID_287_">
			<g id="XMLID_306_">
				<path id="XMLID_314_" style="fill:#9EB7C7;" d="M260.104,465.465c-0.433,0.443-0.804,0.932-1.108,1.453l-0.465-0.241
					c-0.067-0.297-0.35-0.502-0.659-0.466c-0.331,0.039-0.567,0.339-0.529,0.67c0.039,0.331,0.339,0.567,0.67,0.528
					c0.065-0.007,0.127-0.025,0.184-0.052l0.451,0.234c-0.251,0.554-0.433,1.139-0.539,1.743l0.747,0.132
					c0.229-1.306,0.85-2.507,1.792-3.473L260.104,465.465z"/>
				<path id="XMLID_313_" style="fill:#9EB7C7;" d="M265.591,463.164c-0.171,0-0.341,0.006-0.509,0.017l-0.074-0.626
					c0.188-0.149,0.296-0.389,0.266-0.645c-0.046-0.393-0.402-0.674-0.795-0.628c-0.394,0.046-0.675,0.402-0.628,0.796
					c0.03,0.254,0.189,0.461,0.404,0.563l0.073,0.624c-0.714,0.116-1.402,0.332-2.06,0.646l0.327,0.685
					c0.935-0.447,1.941-0.674,2.995-0.674c0.497,0,0.993,0.053,1.476,0.158l0.16-0.741
					C266.692,463.222,266.142,463.164,265.591,463.164z"/>
				<path id="XMLID_312_" style="fill:#9EB7C7;" d="M272.194,465.711c0.331-0.04,0.566-0.341,0.525-0.672
					c-0.04-0.331-0.341-0.566-0.672-0.525c-0.31,0.038-0.535,0.304-0.53,0.608l-0.416,0.363c-0.418-0.43-0.89-0.813-1.407-1.14
					l-0.404,0.642c1.135,0.715,2.021,1.727,2.564,2.925l0.69-0.313c-0.251-0.554-0.567-1.071-0.942-1.545l0.402-0.351
					C272.065,465.715,272.128,465.719,272.194,465.711z"/>
				<path id="XMLID_311_" style="fill:#9EB7C7;" d="M265.044,473.372c-0.386,0.023-0.775,0.035-1.157,0.035
					c-0.88,0-1.733-0.061-2.479-0.18c-0.391-0.062-0.846-0.154-1.271-0.292c1.047,1.861,3.069,3.125,5.389,3.125
					c2.855,0,5.263-1.916,5.949-4.503c-0.682,0.449-1.505,0.825-2.458,1.122C267.838,473.047,266.463,473.287,265.044,473.372z"/>
				<path id="XMLID_307_" style="fill:#9EB7C7;" d="M265.591,464.68c-3.351,0-6.079,2.666-6.079,5.943
					c0,0.425,0.046,0.849,0.137,1.261c0.674,0.483,2.706,0.891,5.348,0.731c2.88-0.174,5.297-0.958,6.672-2.159
					c-0.005-0.194-0.02-0.39-0.045-0.581C271.244,466.914,268.65,464.68,265.591,464.68z M263.432,471.195
					c-1.02,0-1.85-0.83-1.85-1.85c0-1.021,0.83-1.851,1.85-1.851c1.02,0,1.85,0.83,1.85,1.851
					C265.282,470.365,264.452,471.195,263.432,471.195z M268.169,470.287c-0.75,0-1.36-0.61-1.36-1.36s0.61-1.36,1.36-1.36
					s1.36,0.61,1.36,1.36S268.919,470.287,268.169,470.287z"/>
			</g>
			<path id="XMLID_304_" style="fill:#9EB7C7;" d="M281.595,466.547c-0.295-0.116-0.806-0.31-1.383-0.238
				c-0.551,0.069-0.844,0.341-0.844,1.007v0.866h2.229v1.717h-2.229v5.455h-1.932v-5.455h-1.339v-1.717h1.339v-0.889
				c0-1.68,0.896-2.782,2.568-2.782c0.643,0,1.157,0.121,1.59,0.308V466.547z"/>
			<path id="XMLID_302_" style="fill:#9EB7C7;" d="M286.297,469.878c-0.177-0.029-0.357-0.046-0.525-0.046
				c-0.896,0-1.51,0.548-1.51,1.613v3.908h-1.933v-7.172h1.873v0.784c0.451-0.673,1.14-0.977,2.021-0.977
				c0.414,0,0.848,0.128,1.095,0.337L286.297,469.878z"/>
			<path id="XMLID_299_" style="fill:#9EB7C7;" d="M293.965,471.757c0,0.222-0.016,0.488-0.037,0.651h-5.085
				c0.207,1.036,0.933,1.487,1.843,1.487c0.622,0,1.295-0.252,1.813-0.689l1.133,1.243c-0.814,0.748-1.851,1.089-3.057,1.089
				c-2.198,0-3.724-1.496-3.724-3.753c0-2.258,1.48-3.797,3.627-3.797C292.543,467.99,293.958,469.522,293.965,471.757z
				 M288.851,471.091h3.175c-0.178-0.918-0.732-1.437-1.561-1.437C289.554,469.655,289.021,470.203,288.851,471.091z"/>
			<path id="XMLID_296_" style="fill:#9EB7C7;" d="M301.619,471.757c0,0.222-0.016,0.488-0.037,0.651h-5.085
				c0.207,1.036,0.933,1.487,1.843,1.487c0.622,0,1.296-0.252,1.814-0.689l1.133,1.243c-0.815,0.748-1.851,1.089-3.058,1.089
				c-2.198,0-3.723-1.496-3.723-3.753c0-2.258,1.48-3.797,3.627-3.797C300.197,467.99,301.611,469.522,301.619,471.757z
				 M296.504,471.091h3.175c-0.178-0.918-0.733-1.437-1.561-1.437C297.208,469.655,296.674,470.203,296.504,471.091z"/>
			<path id="XMLID_293_" style="fill:#9EB7C7;" d="M309.964,471.764c0,2.154-1.495,3.775-3.472,3.775
				c-0.962,0-1.644-0.378-2.109-0.933v3.708h-1.925v-10.133h1.888v0.792c0.467-0.585,1.154-0.984,2.139-0.984
				C308.469,467.99,309.964,469.611,309.964,471.764z M304.287,471.764c0,1.133,0.748,1.977,1.844,1.977
				c1.14,0,1.85-0.881,1.85-1.977c0-1.095-0.71-1.976-1.85-1.976C305.035,469.789,304.287,470.632,304.287,471.764z"/>
			<path id="XMLID_290_" style="fill:#9EB7C7;" d="M313.068,465.836c0,0.696-0.541,1.229-1.236,1.229
				c-0.696,0-1.229-0.533-1.229-1.229c0-0.695,0.532-1.243,1.229-1.243C312.527,464.592,313.068,465.14,313.068,465.836z
				 M312.808,475.354h-1.932v-7.172h1.932V475.354z"/>
			<path id="XMLID_288_" style="fill:#9EB7C7;" d="M316.032,470.736l2.702-2.554h2.368l-3.478,3.375l3.501,3.797h-2.376
				l-2.717-2.901v2.901H314.1v-10.658h1.932V470.736z"/>
		</g>
		<g id="XMLID_259_">
			<path id="XMLID_284_" style="fill:#9EB7C7;" d="M184.412,475.29v-1.055c-0.527,0.718-1.391,1.23-2.387,1.23
				c-1.846,0-3.149-1.406-3.149-3.706c0-2.256,1.289-3.721,3.149-3.721c0.952,0,1.816,0.469,2.387,1.245v-3.765h1.099v9.771H184.412
				z M184.412,473.371v-3.208c-0.395-0.615-1.245-1.143-2.124-1.143c-1.42,0-2.27,1.172-2.27,2.739c0,1.567,0.85,2.725,2.27,2.725
				C183.167,474.484,184.017,473.986,184.412,473.371z"/>
			<path id="XMLID_281_" style="fill:#9EB7C7;" d="M186.932,471.745c0-2.051,1.465-3.706,3.486-3.706
				c2.139,0,3.398,1.67,3.398,3.794v0.278h-5.727c0.088,1.333,1.025,2.446,2.549,2.446c0.806,0,1.626-0.322,2.182-0.894l0.527,0.718
				c-0.703,0.703-1.655,1.084-2.812,1.084C188.44,475.465,186.932,473.957,186.932,471.745z M190.403,468.947
				c-1.509,0-2.256,1.274-2.314,2.358h4.644C192.718,470.25,192.015,468.947,190.403,468.947z"/>
			<path id="XMLID_279_" style="fill:#9EB7C7;" d="M194.607,474.352l0.571-0.791c0.469,0.542,1.362,1.011,2.329,1.011
				c1.084,0,1.67-0.513,1.67-1.216c0-1.714-4.38-0.659-4.38-3.281c0-1.099,0.952-2.036,2.636-2.036c1.202,0,2.051,0.454,2.623,1.025
				l-0.513,0.762c-0.424-0.513-1.201-0.894-2.109-0.894c-0.966,0-1.567,0.483-1.567,1.113c0,1.553,4.379,0.527,4.379,3.281
				c0,1.187-0.952,2.139-2.783,2.139C196.306,475.465,195.325,475.114,194.607,474.352z"/>
			<path id="XMLID_276_" style="fill:#9EB7C7;" d="M201.477,466.471c0-0.41,0.337-0.747,0.732-0.747c0.41,0,0.747,0.337,0.747,0.747
				c0,0.41-0.337,0.732-0.747,0.732C201.814,467.204,201.477,466.881,201.477,466.471z M201.667,475.29v-7.075h1.099v7.075H201.667z
				"/>
			<path id="XMLID_273_" style="fill:#9EB7C7;" d="M204.582,477.106l0.556-0.82c0.586,0.703,1.289,0.967,2.3,0.967
				c1.172,0,2.27-0.571,2.27-2.124v-1.011c-0.513,0.718-1.377,1.26-2.373,1.26c-1.846,0-3.149-1.377-3.149-3.662
				c0-2.271,1.289-3.677,3.149-3.677c0.952,0,1.802,0.469,2.373,1.245v-1.069h1.099v6.87c0,2.344-1.641,3.076-3.369,3.076
				C206.237,478.161,205.416,477.925,204.582,477.106z M209.708,473.253v-3.091c-0.381-0.615-1.23-1.143-2.109-1.143
				c-1.421,0-2.27,1.128-2.27,2.695c0,1.553,0.849,2.695,2.27,2.695C208.478,474.411,209.328,473.869,209.708,473.253z"/>
			<path id="XMLID_271_" style="fill:#9EB7C7;" d="M217.413,475.29v-4.629c0-1.245-0.63-1.641-1.582-1.641
				c-0.864,0-1.685,0.527-2.094,1.099v5.171h-1.099v-7.075h1.099v1.025c0.497-0.586,1.464-1.201,2.519-1.201
				c1.48,0,2.256,0.747,2.256,2.285v4.966H217.413z"/>
			<path id="XMLID_268_" style="fill:#9EB7C7;" d="M219.932,471.745c0-2.051,1.465-3.706,3.486-3.706
				c2.139,0,3.398,1.67,3.398,3.794v0.278h-5.727c0.088,1.333,1.025,2.446,2.548,2.446c0.806,0,1.626-0.322,2.183-0.894l0.527,0.718
				c-0.703,0.703-1.655,1.084-2.813,1.084C221.441,475.465,219.932,473.957,219.932,471.745z M223.404,468.947
				c-1.509,0-2.256,1.274-2.314,2.358h4.643C225.718,470.25,225.015,468.947,223.404,468.947z"/>
			<path id="XMLID_265_" style="fill:#9EB7C7;" d="M233.35,475.29v-1.055c-0.527,0.718-1.392,1.23-2.388,1.23
				c-1.845,0-3.149-1.406-3.149-3.706c0-2.256,1.289-3.721,3.149-3.721c0.952,0,1.817,0.469,2.388,1.245v-3.765h1.098v9.771H233.35z
				 M233.35,473.371v-3.208c-0.396-0.615-1.245-1.143-2.124-1.143c-1.421,0-2.27,1.172-2.27,2.739c0,1.567,0.85,2.725,2.27,2.725
				C232.105,474.484,232.954,473.986,233.35,473.371z"/>
			<path id="XMLID_262_" style="fill:#9EB7C7;" d="M239.692,475.29v-9.771h1.099v3.765c0.571-0.776,1.421-1.245,2.388-1.245
				c1.845,0,3.149,1.465,3.149,3.721c0,2.3-1.304,3.706-3.149,3.706c-0.996,0-1.86-0.513-2.388-1.23v1.055H239.692z M242.9,474.484
				c1.436,0,2.285-1.157,2.285-2.725c0-1.567-0.85-2.739-2.285-2.739c-0.864,0-1.729,0.527-2.109,1.143v3.208
				C241.171,473.986,242.036,474.484,242.9,474.484z"/>
			<path id="XMLID_260_" style="fill:#9EB7C7;" d="M247.528,477.062c0.161,0.073,0.425,0.117,0.6,0.117
				c0.483,0,0.806-0.161,1.055-0.747l0.469-1.069l-2.959-7.148h1.187l2.358,5.801l2.344-5.801h1.2l-3.544,8.511
				c-0.425,1.024-1.143,1.421-2.08,1.436c-0.234,0-0.6-0.044-0.806-0.104L247.528,477.062z"/>
		</g>
	</g>
</g>
</svg>
